<svg width="46" height="68" viewBox="0 0 46 68" fill="none" xmlns="http://www.w3.org/2000/svg">
<path fill-rule="evenodd" clip-rule="evenodd" d="M0.322876 9.85001C6.12704 4.04584 14.1479 0.458344 23.0145 0.458344C31.8812 0.458344 39.902 4.04584 45.677 9.87918L41.5645 13.9917C36.8395 9.23751 30.277 6.29168 23.0145 6.29168C15.752 6.29168 9.18954 9.23751 4.43538 13.9625L0.322876 9.85001ZM8.57699 18.1042L12.6895 22.2167C15.3437 19.5917 18.9895 17.9583 23.0145 17.9583C27.0395 17.9583 30.6853 19.5917 33.3395 22.2167L37.452 18.1042C33.7478 14.4 28.6437 12.125 23.0145 12.125C17.3853 12.125 12.2812 14.4 8.57699 18.1042ZM31.7646 26.7083H14.2646C12.6604 26.7083 11.3479 28.0208 11.3479 29.625V64.625C11.3479 66.2292 12.6604 67.5417 14.2646 67.5417H31.7646C33.3688 67.5417 34.6813 66.2292 34.6813 64.625V29.625C34.6813 28.0208 33.3688 26.7083 31.7646 26.7083ZM28.8479 61.7083H17.1813V32.5417H28.8479V61.7083ZM20.0979 38.375C20.0979 36.7642 21.4038 35.4583 23.0146 35.4583C24.6254 35.4583 25.9313 36.7642 25.9313 38.375C25.9313 39.9858 24.6254 41.2917 23.0146 41.2917C21.4038 41.2917 20.0979 39.9858 20.0979 38.375Z" fill="white"/>
</svg>
