<svg width="66" height="36" viewBox="0 0 66 36" fill="none" xmlns="http://www.w3.org/2000/svg">
<path d="M65.0834 6.33333C65.0834 9.54167 62.4584 12.1667 59.2501 12.1667C58.7251 12.1667 58.2292 12.1083 57.7626 11.9625L47.3792 22.3167C47.5251 22.7833 47.5834 23.3083 47.5834 23.8333C47.5834 27.0417 44.9584 29.6667 41.7501 29.6667C38.5417 29.6667 35.9167 27.0417 35.9167 23.8333C35.9167 23.3083 35.9751 22.7833 36.1209 22.3167L28.6834 14.8792C28.2167 15.025 27.6917 15.0833 27.1667 15.0833C26.6417 15.0833 26.1167 15.025 25.6501 14.8792L12.3792 28.1792C12.5251 28.6458 12.5834 29.1417 12.5834 29.6667C12.5834 32.875 9.95841 35.5 6.75008 35.5C3.54175 35.5 0.916748 32.875 0.916748 29.6667C0.916748 26.4583 3.54175 23.8333 6.75008 23.8333C7.27508 23.8333 7.77091 23.8917 8.23758 24.0375L21.5376 10.7667C21.3917 10.3 21.3334 9.775 21.3334 9.25C21.3334 6.04167 23.9584 3.41667 27.1667 3.41667C30.3751 3.41667 33.0001 6.04167 33.0001 9.25C33.0001 9.775 32.9417 10.3 32.7959 10.7667L40.2334 18.2042C40.7001 18.0583 41.2251 18 41.7501 18C42.2751 18 42.8001 18.0583 43.2667 18.2042L53.6209 7.82083C53.4751 7.35417 53.4167 6.85833 53.4167 6.33333C53.4167 3.125 56.0417 0.5 59.2501 0.5C62.4584 0.5 65.0834 3.125 65.0834 6.33333Z" fill="white"/>
</svg>
