<svg width="42" height="42" viewBox="0 0 42 42" fill="none" xmlns="http://www.w3.org/2000/svg">
<path fill-rule="evenodd" clip-rule="evenodd" d="M21 0.166656C9.49996 0.166656 0.166626 9.49999 0.166626 21C0.166626 32.5 9.49996 41.8333 21 41.8333C32.5 41.8333 41.8333 32.5 41.8333 21C41.8333 9.49999 32.5 0.166656 21 0.166656ZM22.0625 16.8125C22.0625 13.375 19.25 10.5625 15.8125 10.5625C12.375 10.5625 9.56247 13.375 9.56247 16.8125C9.56247 20.25 12.375 23.0625 15.8125 23.0625C19.25 23.0625 22.0625 20.25 22.0625 16.8125ZM15.8125 18.8958C14.6666 18.8958 13.7291 17.9583 13.7291 16.8125C13.7291 15.6666 14.6666 14.7291 15.8125 14.7291C16.9583 14.7291 17.8958 15.6666 17.8958 16.8125C17.8958 17.9583 16.9583 18.8958 15.8125 18.8958ZM33.5208 18.8958C33.5208 21.2083 31.6666 23.0625 29.3541 23.0625C27.0416 23.0625 25.1874 21.2083 25.1874 18.8958C25.1666 16.5833 27.0416 14.7291 29.3541 14.7291C31.6666 14.7291 33.5208 16.5833 33.5208 18.8958ZM15.8125 29.3333C12.9166 29.3333 9.60413 30.5208 8.18746 31.6458C11.0416 35.0833 15.25 37.3333 19.9791 37.6041V31.8125C19.9791 27.875 26.1875 26.1875 29.3541 26.1875C31.1875 26.1875 34.0208 26.7708 36.1041 28C37.1041 25.8541 37.6666 23.4791 37.6666 20.9791C37.6666 11.7916 30.1875 4.31248 21 4.31248C11.8125 4.31248 4.33329 11.7916 4.33329 20.9791C4.33329 23.5416 4.91663 25.9583 5.95829 28.125C8.74996 26.0833 13.1041 25.1458 15.8125 25.1458C16.7291 25.1458 17.8333 25.2708 19 25.4791C17.6875 26.6666 16.7916 28.0208 16.2916 29.3541C16.2055 29.3541 16.1194 29.3486 16.0362 29.3432C15.9583 29.3382 15.8829 29.3333 15.8125 29.3333Z" fill="#093D43"/>
</svg>
